HIERARCHY
ROOT Hips
{
	OFFSET -0.001795 -0.223333 0.028219
	CHANNELS 6 Xposition Yposition Zposition Zrotation Yrotation Xrotation 
	JOINT LeftUpLeg
	{
		OFFSET 0.069520 -0.091406 -0.006815
		CHANNELS 3 Zrotation Yrotation Xrotation
		JOINT LeftLeg
		{
			OFFSET 0.034277 -0.375199 -0.004496
			CHANNELS 3 Zrotation Yrotation Xrotation
			JOINT LeftFoot
			{
				OFFSET -0.013596 -0.397961 -0.043693
				CHANNELS 3 Zrotation Yrotation Xrotation
				JOINT LeftToe
				{
					OFFSET 0.026358 -0.055791 0.119288
					CHANNELS 3 Zrotation Yrotation Xrotation
					End Site
					{
						OFFSET 0.000000 0.000000 0.000000
					}
				}
			}
		}
	}
	JOINT RightUpLeg
	{
		OFFSET -0.067670 -0.090522 -0.004320
		CHANNELS 3 Zrotation Yrotation Xrotation
		JOINT RightLeg
		{
			OFFSET -0.038290 -0.382569 -0.008850
			CHANNELS 3 Zrotation Yrotation Xrotation
			JOINT RightFoot
			{
				OFFSET 0.015774 -0.398415 -0.042312
				CHANNELS 3 Zrotation Yrotation Xrotation
				JOINT RightToe
				{
					OFFSET -0.025372 -0.048144 0.123348
					CHANNELS 3 Zrotation Yrotation Xrotation
					End Site
					{
						OFFSET 0.000000 0.000000 0.000000
					}
				}
			}
		}
	}
	JOINT Spine
	{
		OFFSET -0.002533 0.108963 -0.026696
		CHANNELS 3 Zrotation Yrotation Xrotation
		JOINT Spine1
		{
			OFFSET 0.005487 0.135180 0.001092
			CHANNELS 3 Zrotation Yrotation Xrotation
			JOINT Spine2
			{
				OFFSET 0.001457 0.052922 0.025425
				CHANNELS 3 Zrotation Yrotation Xrotation
				JOINT Neck
				{
					OFFSET -0.002778 0.213870 -0.042857
					CHANNELS 3 Zrotation Yrotation Xrotation
					JOINT Head
					{
						OFFSET 0.005152 0.064970 0.051349
						CHANNELS 3 Zrotation Yrotation Xrotation
						End Site
						{
							OFFSET 0.000000 0.000000 0.000000
						}
					}
				}
				JOINT LeftShoulder
				{
					OFFSET 0.078845 0.121749 -0.034090
					CHANNELS 3 Zrotation Yrotation Xrotation
					JOINT LeftArm
					{
						OFFSET 0.090977 0.030469 -0.008868
						CHANNELS 3 Zrotation Yrotation Xrotation
						JOINT LeftForeArm
						{
							OFFSET 0.259612 -0.012772 -0.027456
							CHANNELS 3 Zrotation Yrotation Xrotation
							JOINT LeftHand
							{
								OFFSET 0.249234 0.008986 -0.001171
								CHANNELS 3 Zrotation Yrotation Xrotation
								End Site
								{
									OFFSET 0.000000 0.000000 0.000000
								}
							}
						}
					}
				}
				JOINT RightShoulder
				{
					OFFSET -0.081759 0.118833 -0.038615
					CHANNELS 3 Zrotation Yrotation Xrotation
					JOINT RightArm
					{
						OFFSET -0.096012 0.032551 -0.009143
						CHANNELS 3 Zrotation Yrotation Xrotation
						JOINT RightForeArm
						{
							OFFSET -0.253742 -0.013329 -0.021401
							CHANNELS 3 Zrotation Yrotation Xrotation
							JOINT RightHand
							{
								OFFSET -0.255298 0.007772 -0.005559
								CHANNELS 3 Zrotation Yrotation Xrotation
								End Site
								{
									OFFSET 0.000000 0.000000 0.000000
								}
							}
						}
					}
				}
			}
		}
	}
}
MOTION
Frames: 7
Frame Time: 0.05000000
0.086891 1.036441 0.361351 1.687287 19.745469 3.822515 0.129065 0.589701 20.389824 -1.659775 0.174019 -5.386313 0.097655 -5.647887 -7.465729 0.000000 0.000000 0.000000 -7.587261 -0.702929 -28.359422 3.022635 -0.476307 4.432568 -8.884692 -19.715953 8.051804 0.000000 0.000000 0.000000 -8.623194 -0.163995 -2.743062 8.826102 -1.113687 -27.281006 -4.543572 -14.926958 34.160715 -1.124714 1.886775 -30.264821 0.000000 0.000000 0.000000 -33.438768 7.510516 -6.639443 -48.728320 4.150374 -10.234685 -14.792421 -35.545263 7.284596 0.000000 0.000000 0.000000 31.682761 -2.270988 -4.340855 50.761573 -8.777339 -10.766772 -7.648345 29.112534 -0.408835 0.000000 0.000000 0.000000 
0.087010 1.033970 0.408848 2.076635 21.138656 4.886668 0.984401 0.271113 21.014931 -0.772861 0.113985 -2.783598 -0.591712 -6.212550 -6.223497 0.000000 0.000000 0.000000 -6.515930 -0.520899 -28.182684 2.136980 -0.351000 6.251369 -9.228119 -19.703057 10.717789 0.000000 0.000000 0.000000 -7.704896 -0.139016 -3.144311 8.693868 -1.042455 -27.742117 -4.996157 -15.569635 33.861913 0.188341 1.166210 -29.087166 0.000000 0.000000 0.000000 -32.911674 6.604943 -6.131589 -48.953150 4.499188 -10.299355 -15.303303 -36.382481 7.575468 0.000000 0.000000 0.000000 33.646249 -3.276077 -5.213065 47.929499 -8.356172 -9.953357 -9.009160 28.796971 -0.720194 0.000000 0.000000 0.000000 
0.085709 1.039424 0.458696 1.836074 21.285386 5.991227 2.036394 0.009863 20.520969 0.034298 -0.031293 0.600670 -1.859315 -5.337105 -2.035283 0.000000 0.000000 0.000000 -5.496250 -0.201285 -27.889125 3.144294 -0.644404 8.677183 -9.519003 -19.793509 13.190010 0.000000 0.000000 0.000000 -6.908566 -0.146847 -4.561129 9.463328 -1.259550 -27.013971 -5.666481 -16.547113 33.748690 0.703118 0.737199 -29.225313 0.000000 0.000000 0.000000 -31.977193 7.263127 -6.040739 -50.674906 5.112016 -10.970083 -15.355753 -36.500064 7.779254 0.000000 0.000000 0.000000 32.679788 -1.892387 -4.527516 47.706536 -7.039152 -9.279461 -12.024047 28.817392 -1.498772 0.000000 0.000000 0.000000 
0.083183 1.050795 0.508607 1.494149 19.420105 7.770232 2.788134 0.037944 17.455386 0.534531 -0.363679 6.055066 -3.472163 -3.727916 4.261677 0.000000 0.000000 0.000000 -3.743656 0.484656 -27.462657 3.554500 -0.738320 9.661040 -8.850828 -18.773564 13.888780 0.000000 0.000000 0.000000 -5.516748 -0.120509 -6.751618 9.528488 -1.284247 -26.846237 -5.160321 -16.277236 33.536527 -0.003488 0.903056 -27.743876 0.000000 0.000000 0.000000 -31.662021 8.409032 -6.389243 -50.636031 6.411649 -11.528383 -16.406483 -36.600243 8.290650 0.000000 0.000000 0.000000 30.099947 -1.849045 -4.525854 47.551580 -6.257683 -8.862597 -11.015013 28.699320 -1.349178 0.000000 0.000000 0.000000 
0.079821 1.061324 0.556077 1.294747 17.838144 8.238752 3.581631 0.015353 12.193998 0.112124 -1.106141 16.227788 -3.726085 -0.773554 9.775154 0.000000 0.000000 0.000000 -1.947140 1.088651 -25.145915 3.002638 -0.573546 9.601845 -7.704505 -17.155651 12.221234 0.000000 0.000000 0.000000 -4.818920 -0.079538 -7.345028 10.327442 -1.548014 -25.950507 -5.110205 -15.002586 33.075618 -0.503117 1.242805 -27.819331 0.000000 0.000000 0.000000 -32.355081 9.291681 -7.248498 -49.290645 7.322848 -11.495302 -17.612232 -36.765177 8.676129 0.000000 0.000000 0.000000 28.165589 -0.781279 -3.448123 48.268287 -5.478866 -8.742123 -10.450995 30.406077 -1.305783 0.000000 0.000000 0.000000 
0.076185 1.067352 0.600256 1.033809 16.077483 7.876626 3.252122 -0.013003 4.497047 -0.632304 -2.491333 30.517397 0.661910 6.652840 11.008292 0.000000 0.000000 0.000000 -0.146498 1.510595 -21.827084 2.520095 -0.403609 8.550016 -6.797084 -15.775563 11.552559 0.000000 0.000000 0.000000 -4.314135 -0.001853 -6.316585 10.432733 -1.595987 -25.883240 -4.113923 -13.307273 32.682121 0.043716 1.023588 -27.461585 0.000000 0.000000 0.000000 -32.448624 8.804428 -7.175197 -49.161642 7.909380 -11.575091 -18.543282 -36.907973 8.944876 0.000000 0.000000 0.000000 28.005575 0.251231 -2.536576 47.214993 -4.476100 -8.228177 -10.163617 31.714749 -1.279600 0.000000 0.000000 0.000000 
0.072438 1.071024 0.642268 1.156761 14.310583 7.352729 3.173383 -0.344268 -3.023402 -3.623834 -2.484351 41.751901 5.429580 13.383300 8.862720 0.000000 0.000000 0.000000 0.980564 1.597811 -18.312001 2.094745 -0.270524 7.545345 -5.913037 -14.388953 10.076847 0.000000 0.000000 0.000000 -4.737781 0.013948 -5.453411 10.617008 -1.652762 -25.854950 -3.153007 -10.962130 32.931382 0.422498 0.957023 -26.513776 0.000000 0.000000 0.000000 -33.250515 8.951679 -7.954277 -48.014379 7.714697 -11.140282 -18.306207 -36.985875 8.728880 0.000000 0.000000 0.000000 27.997913 0.605046 -1.772765 46.042162 -3.978512 -8.046218 -8.510596 33.514292 -0.813794 0.000000 0.000000 0.000000 
